# xmcd
#
# Track frame offsets: 
#        150
#        19693
#        34835
#        50062
#        71100
#        86104
#        104912
#        124587
#        151679
#        174292
#        205259
#        241760
#
# Disc length: 3676 seconds
#
# Revision: 0
# Processed by: cddbd v1.5.2PL0 Copyright (c) Steve Scherf et al.
# Submitted via: ExactAudioCopyFreeDBPlugin 1.0
#
DISCID=9f0e5a0c
DTITLE=Orlando Johnson - Funky Time
DYEAR=2011
DGENRE=R&B 80's
TTITLE0=Drive Me Out Of My Mind
TTITLE1=It's A Feeling Inside
TTITLE2=Do You Care About Me
TTITLE3=You Got What It Takes
TTITLE4=Two Can Make It Better
TTITLE5=I Got It
TTITLE6=Funky Night
TTITLE7=I Can't Stop
TTITLE8=If You Come Back
TTITLE9=Somebody Save Me (Massimo Berardi Re-work)
TTITLE10=Turn The Music On (Massimo Berardi Re-edit)
TTITLE11=I Got It (Harlem Hustlers Twisted Remix)
EXTD=
EXTT0=
EXTT1=
EXTT2=
EXTT3=
EXTT4=
EXTT5=
EXTT6=
EXTT7=
EXTT8=
EXTT9=
EXTT10=
EXTT11=
PLAYORDER=
